<?xml version="1.0" encoding="UTF-8"?><svg id="a" xmlns="http://www.w3.org/2000/svg" viewBox="0 0 300 34"><defs><style>.b{fill:#00b8f5;}.c{fill:#012a72;}.d{fill:#fff;}.e{fill:gray;}</style></defs><g><g><path class="b" d="M73.81,11.53c-.31-.9-.9-1.68-1.68-2.23-.78-.55-1.71-.85-2.66-.85h-.04c-.62,0-1.23,.12-1.8,.37-.57,.24-1.09,.6-1.52,1.05-.43-.45-.95-.8-1.52-1.05-.57-.24-1.18-.37-1.8-.37h-.04c-1.1,0-2.17,.39-3,1.11v-.35c0-.17-.09-.33-.21-.45-.12-.12-.29-.18-.45-.19h-3.08c-.18,0-.35,.07-.48,.2-.13,.13-.2,.3-.2,.48V25.98c0,.18,.07,.35,.2,.48,.13,.13,.3,.2,.48,.2h3.08c.16,0,.32-.06,.44-.17,.12-.11,.2-.26,.22-.42V13.95c.02-.27,.14-.53,.34-.72,.19-.19,.45-.3,.73-.32h.57c.24,.02,.46,.11,.65,.25,.13,.11,.24,.25,.31,.4,.07,.16,.11,.33,.1,.5v11.94c0,.18,.07,.35,.2,.48,.13,.13,.3,.2,.48,.2h3.09c.18,0,.34-.07,.47-.19s.2-.29,.21-.46V14.06c0-.19,.04-.38,.13-.55,.09-.17,.22-.31,.38-.42,.17-.11,.36-.18,.57-.19h.57c.29,.02,.57,.14,.77,.36,.2,.22,.31,.5,.3,.79v11.92c0,.09,.03,.18,.06,.26,.03,.08,.09,.16,.15,.22,.06,.06,.14,.11,.22,.15,.08,.03,.17,.05,.26,.05h3.08c.09,0,.18-.02,.26-.05,.08-.03,.16-.08,.22-.15,.06-.06,.11-.14,.15-.22,.03-.08,.05-.17,.05-.26V13.16c.03-.55-.05-1.11-.23-1.63"/><path class="b" d="M52.98,8.63h-1.77v-2.85c0-.08-.02-.16-.05-.24-.03-.08-.08-.14-.14-.2-.06-.06-.13-.1-.2-.14-.08-.03-.16-.05-.24-.05-.04,0-.08,0-.12,.01-1.95,.54-1.55,3.24-5.12,3.47h-.35s-.1,0-.15,.02c-.15,.03-.29,.12-.38,.24-.1,.12-.15,.27-.15,.43v3.08c0,.18,.07,.35,.2,.48,.13,.13,.3,.2,.48,.2h1.86v13.05c0,.09,.02,.18,.05,.26,.03,.08,.08,.16,.14,.22,.06,.06,.14,.11,.22,.15,.08,.03,.17,.05,.26,.05h3.04c.18,0,.35-.08,.47-.2,.13-.13,.19-.3,.19-.47V13.08h1.73c.09,0,.17-.02,.26-.05,.08-.03,.16-.08,.22-.15,.06-.06,.11-.14,.15-.22,.03-.08,.05-.17,.05-.26v-3.08c0-.18-.07-.35-.2-.48-.13-.13-.3-.2-.48-.2"/><path class="c" d="M41.9,8.63h-3.08c-.18,0-.35,.07-.48,.2-.13,.13-.2,.3-.2,.48v6.37c0,.19-.08,.37-.21,.5-.13,.13-.32,.21-.51,.21h-1.29c-.09,0-.19-.02-.28-.06-.09-.04-.17-.09-.23-.16-.07-.07-.12-.15-.16-.23-.04-.09-.05-.18-.05-.28v-6.35c-.01-.18-.09-.35-.21-.48-.13-.13-.3-.2-.48-.2h-3.08c-.18,0-.35,.07-.48,.2-.13,.13-.2,.3-.2,.48v6.98c0,2.66,1.89,4.54,4.54,4.54,0,0,1.99,0,2.05,.01,.18,.02,.34,.1,.45,.24,.12,.13,.18,.3,.18,.48,0,.17-.06,.34-.18,.48-.12,.13-.28,.22-.45,.24h-.05l-4.5,.02c-.18,0-.35,.07-.48,.2s-.2,.3-.2,.48v3.08c0,.09,.02,.18,.05,.26,.03,.08,.08,.16,.15,.22,.06,.06,.14,.11,.22,.15,.08,.03,.17,.05,.26,.05h5.03c2.66,0,4.54-1.89,4.54-4.54V9.3c0-.18-.07-.35-.2-.48-.13-.13-.3-.2-.48-.2"/><path class="c" d="M12.39,8.63H5.66c-.18,0-.35,.07-.47,.19-.12,.12-.19,.29-.19,.47V26.02c0,.17,.06,.34,.17,.47,.12,.13,.28,.2,.45,.22h3.13c.09,0,.18-.02,.26-.05,.08-.03,.16-.08,.22-.15,.06-.06,.11-.14,.15-.22,.03-.08,.05-.17,.05-.26v-4.68h2.96c2.46,0,4.18-1.71,4.18-4.18v-4.34c0-2.47-1.72-4.19-4.18-4.19h0Zm-.27,5.64v1.9c0,.09-.02,.19-.05,.28-.04,.09-.09,.17-.16,.23-.07,.07-.15,.12-.23,.16-.09,.04-.18,.05-.28,.05h-1.95v-3.81h1.95c.09,0,.19,.02,.28,.06,.09,.04,.17,.09,.23,.16,.07,.07,.12,.15,.16,.23,.04,.09,.05,.18,.05,.28v.47Z"/><path class="c" d="M24.39,8.65h-4.27c-.18,0-.35,.06-.47,.18-.13,.12-.2,.29-.21,.46v1.22s0,.01,0,.02v1.65c0,.19,.09,.36,.22,.49,.14,.13,.32,.2,.5,.19h4.07c.16,.02,.31,.1,.42,.22,.11,.12,.18,.27,.19,.43v.4c-.01,.16-.08,.31-.18,.42-.11,.12-.25,.19-.41,.21h-2.01c-2.68,0-4.59,1.77-4.59,4.28v3.58c0,2.48,1.64,4.25,4.3,4.25h5.58c.46,.02,.92-.15,1.26-.47,.34-.32,.54-.76,.56-1.22V13.26c0-2.83-1.46-4.62-4.95-4.62h0Zm.49,12.85v.48s0,.08-.01,.11c0,.03-.02,.07-.03,.1-.05,.14-.15,.26-.27,.34-.12,.08-.27,.13-.41,.12h-1.28c-.19,0-.37-.06-.5-.19-.14-.13-.22-.3-.22-.49v-2.63c0-.19,.09-.36,.22-.49,.14-.13,.32-.19,.5-.19h1.28c.19,0,.37,.06,.5,.19,.14,.13,.22,.3,.22,.49v2.15Z"/></g><rect class="b" x="80.62" y="5.16" width="47.79" height="21.65" rx="10.83" ry="10.83"/><path class="d" d="M91.78,23.24h3.51v-4.51h2.38c3.33,0,5.4-1.97,5.4-4.98s-2.03-5.03-5.3-5.03h-6v14.52Zm3.51-7.27v-4.42h1.73c1.57,0,2.42,.85,2.42,2.2s-.84,2.22-2.42,2.22h-1.73Zm18.25-2.5h3.55c-.35-2.89-2.94-4.94-6.3-4.94-3.88,0-6.94,2.73-6.94,7.48s2.82,7.44,6.98,7.44c3.74,0,6.41-2.32,6.41-6.22v-1.92h-6.26v2.56h2.88c-.04,1.53-1.1,2.5-3,2.5-2.18,0-3.43-1.61-3.43-4.4s1.33-4.36,3.43-4.36c1.4,0,2.36,.69,2.67,1.86Z"/></g><g><path d="M144.8,13.04c.55,.33,1.18,.49,1.88,.49,.48,0,.91-.07,1.3-.21,.39-.14,.73-.34,1.02-.59,.29-.25,.53-.55,.71-.88,.18-.33,.3-.69,.35-1.07h-1.46c-.04,.23-.12,.44-.24,.62-.12,.18-.26,.34-.43,.46-.17,.13-.36,.22-.57,.28-.21,.06-.43,.1-.67,.1-.43,0-.82-.11-1.15-.32s-.6-.53-.79-.95c-.19-.42-.29-.93-.29-1.55s.1-1.11,.29-1.53c.19-.42,.45-.74,.79-.95,.34-.22,.72-.33,1.16-.33,.24,0,.47,.03,.69,.1,.21,.07,.4,.16,.57,.3,.17,.13,.31,.29,.42,.48s.19,.4,.23,.64h1.46c-.06-.45-.19-.84-.38-1.19s-.44-.64-.74-.88c-.3-.24-.64-.42-1.02-.55s-.8-.19-1.24-.19c-.7,0-1.32,.16-1.88,.49-.55,.33-.99,.8-1.31,1.41s-.48,1.35-.48,2.21,.16,1.6,.48,2.21c.32,.61,.75,1.09,1.31,1.41Z"/><path d="M152.76,9.89c0-.26,.06-.48,.18-.68,.12-.2,.28-.35,.48-.46,.2-.11,.44-.17,.69-.17,.12,0,.24,0,.37,.03,.13,.02,.22,.04,.28,.06v-1.3c-.07-.01-.15-.02-.24-.03-.1,0-.19,0-.26,0-.34,0-.65,.09-.92,.28-.27,.19-.46,.46-.56,.8h-.06v-1h-1.37v6h1.42v-3.53Z"/><path d="M160.73,11.8l-1.32-.15c-.06,.17-.16,.31-.28,.43-.12,.11-.27,.2-.43,.26-.17,.06-.35,.09-.56,.09-.31,0-.58-.07-.81-.2-.23-.13-.41-.32-.54-.57-.12-.24-.19-.53-.19-.86h4.18v-.43c0-.53-.07-.98-.22-1.36s-.35-.7-.6-.94c-.25-.25-.55-.43-.88-.55-.33-.12-.68-.18-1.05-.18-.57,0-1.07,.13-1.5,.39s-.75,.63-.99,1.09c-.24,.47-.35,1.01-.35,1.63s.12,1.17,.35,1.64c.23,.46,.57,.82,1.01,1.07,.44,.25,.96,.38,1.56,.38,.47,0,.88-.07,1.24-.21,.36-.14,.66-.34,.89-.6,.23-.26,.39-.56,.48-.91Zm-3.43-3.16c.22-.14,.47-.21,.76-.21,.27,0,.51,.06,.71,.18,.2,.12,.36,.29,.48,.5s.17,.45,.18,.73h-2.82c.01-.23,.07-.45,.18-.65,.12-.23,.29-.41,.51-.55Z"/><path d="M165.61,12.93c.14-.16,.24-.32,.32-.46h.09v.95h1.39V5.41h-1.42v2.99h-.06c-.07-.15-.18-.3-.31-.47-.13-.17-.31-.31-.54-.43-.23-.12-.52-.18-.87-.18-.46,0-.88,.12-1.25,.35-.38,.24-.67,.58-.89,1.04-.22,.46-.33,1.02-.33,1.69s.11,1.22,.32,1.68c.22,.46,.51,.81,.88,1.06,.37,.24,.79,.36,1.27,.36,.34,0,.63-.06,.86-.17,.23-.11,.41-.25,.55-.42Zm-1.01-.57c-.31,0-.57-.08-.78-.25-.21-.17-.37-.4-.48-.69-.11-.29-.16-.63-.16-1s.05-.7,.16-.99,.27-.52,.48-.68c.21-.16,.47-.25,.79-.25s.56,.08,.77,.24c.21,.16,.37,.38,.48,.67,.11,.29,.16,.62,.16,1.01s-.05,.73-.16,1.02c-.11,.29-.27,.52-.48,.68-.21,.16-.47,.24-.77,.24Z"/><path d="M169.63,6.56c.22,0,.42-.07,.58-.22,.16-.15,.24-.33,.24-.54s-.08-.4-.24-.55c-.16-.15-.35-.22-.58-.22s-.42,.07-.58,.22c-.16,.15-.24,.33-.24,.55s.08,.39,.24,.54c.16,.15,.35,.22,.58,.22Z"/><rect x="168.92" y="7.41" width="1.42" height="6"/><path d="M172.19,11.84c0,.38,.08,.69,.24,.94,.17,.25,.39,.43,.67,.55,.28,.12,.6,.17,.96,.16,.2,0,.37-.02,.51-.05,.14-.03,.25-.06,.32-.09l-.24-1.11s-.1,.02-.17,.04c-.07,.01-.16,.02-.24,.02-.12,0-.22-.02-.32-.05-.1-.04-.17-.1-.23-.21-.06-.1-.09-.25-.09-.44v-3.1h1.18v-1.09h-1.18v-1.44h-1.42v1.44h-.85v1.09h.85v3.34Z"/><polygon points="175.42 14.62 176.66 14.62 179.24 5.03 178 5.03 175.42 14.62"/><path d="M185,12.93c.58-.32,1.02-.78,1.33-1.38,.31-.6,.46-1.32,.46-2.15s-.15-1.55-.46-2.14c-.31-.6-.75-1.05-1.32-1.37-.57-.32-1.26-.48-2.05-.48h-2.77V13.42h2.71c.81,0,1.51-.16,2.09-.48Zm-3.35-.77V6.66h1.24c.54,0,1,.1,1.36,.3,.37,.2,.64,.51,.83,.91,.19,.41,.28,.91,.28,1.53s-.09,1.12-.28,1.53c-.19,.41-.47,.71-.84,.92-.37,.2-.84,.31-1.4,.31h-1.19Z"/><path d="M190.77,13.53c.47,0,.88-.07,1.24-.21,.36-.14,.66-.34,.89-.6,.23-.26,.39-.56,.48-.91l-1.32-.15c-.06,.17-.16,.31-.28,.43-.12,.11-.27,.2-.43,.26-.17,.06-.35,.09-.56,.09-.31,0-.58-.07-.81-.2-.23-.13-.41-.32-.54-.57-.12-.24-.19-.53-.19-.86h4.18v-.43c0-.53-.07-.98-.22-1.36s-.35-.7-.6-.94c-.25-.25-.55-.43-.88-.55-.33-.12-.68-.18-1.05-.18-.57,0-1.07,.13-1.5,.39s-.75,.63-.99,1.09c-.24,.47-.35,1.01-.35,1.63s.12,1.17,.35,1.64c.23,.46,.57,.82,1.01,1.07,.44,.25,.96,.38,1.56,.38Zm-.82-4.89c.22-.14,.47-.21,.76-.21,.27,0,.51,.06,.71,.18,.2,.12,.36,.29,.48,.5s.17,.45,.18,.73h-2.82c.01-.23,.07-.45,.18-.65,.12-.23,.29-.41,.51-.55Z"/><path d="M196.09,12.47h.08c.08,.15,.18,.3,.32,.46,.14,.16,.32,.3,.55,.42,.23,.11,.51,.17,.86,.17,.47,0,.89-.12,1.27-.36,.37-.24,.67-.59,.88-1.06,.22-.46,.32-1.02,.32-1.68s-.11-1.23-.33-1.69c-.22-.46-.52-.81-.89-1.04-.37-.24-.79-.35-1.26-.35-.35,0-.64,.06-.87,.18-.23,.12-.41,.26-.54,.43s-.24,.32-.31,.47h-.06v-2.99h-1.42V13.42h1.39v-.95Zm.16-3.07c.11-.29,.27-.51,.48-.67,.21-.16,.47-.24,.77-.24s.58,.08,.79,.25,.37,.39,.48,.68,.16,.62,.16,.99-.05,.71-.16,1c-.11,.29-.27,.52-.48,.69-.21,.17-.47,.25-.79,.25s-.55-.08-.76-.24c-.21-.16-.37-.39-.48-.68-.11-.29-.17-.63-.17-1.02s.05-.73,.16-1.01Z"/><rect x="201.57" y="7.41" width="1.42" height="6"/><path d="M202.28,6.56c.22,0,.42-.07,.58-.22,.16-.15,.24-.33,.24-.54s-.08-.4-.24-.55c-.16-.15-.35-.22-.58-.22s-.42,.07-.58,.22c-.16,.15-.24,.33-.24,.55s.08,.39,.24,.54c.16,.15,.35,.22,.58,.22Z"/><path d="M207.23,13.44c.14-.03,.25-.06,.32-.09l-.24-1.11s-.1,.02-.17,.04c-.07,.01-.16,.02-.24,.02-.12,0-.22-.02-.32-.05-.1-.04-.17-.1-.23-.21-.06-.1-.09-.25-.09-.44v-3.1h1.18v-1.09h-1.18v-1.44h-1.42v1.44h-.85v1.09h.85v3.34c0,.38,.08,.69,.24,.94,.17,.25,.39,.43,.67,.55,.28,.12,.6,.17,.96,.16,.2,0,.37-.02,.51-.05Z"/><path d="M213.75,6.93c.34-.22,.72-.33,1.16-.33,.24,0,.47,.03,.69,.1,.21,.07,.4,.16,.57,.3,.17,.13,.31,.29,.42,.48,.11,.19,.19,.4,.23,.64h1.46c-.06-.45-.19-.84-.38-1.19-.19-.35-.44-.64-.74-.88-.3-.24-.64-.42-1.02-.55s-.8-.19-1.24-.19c-.7,0-1.32,.16-1.88,.49-.55,.33-.99,.8-1.31,1.41s-.48,1.35-.48,2.21,.16,1.6,.48,2.21,.75,1.09,1.31,1.41c.55,.33,1.18,.49,1.88,.49,.48,0,.91-.07,1.3-.21,.39-.14,.73-.34,1.02-.59,.29-.25,.53-.55,.71-.88,.18-.33,.3-.69,.35-1.07h-1.46c-.04,.23-.12,.44-.24,.62-.12,.18-.26,.34-.43,.46-.17,.13-.36,.22-.57,.28-.21,.06-.43,.1-.67,.1-.43,0-.82-.11-1.15-.32-.33-.21-.6-.53-.79-.95-.19-.42-.29-.93-.29-1.55s.1-1.11,.29-1.53c.19-.42,.45-.74,.79-.95Z"/><path d="M222.67,13.06c.16-.14,.28-.3,.36-.47h.05v.82h1.36v-4.02c0-.4-.07-.73-.22-1s-.34-.48-.57-.63c-.24-.15-.5-.27-.79-.33-.29-.07-.57-.1-.86-.1-.42,0-.8,.06-1.15,.19-.35,.12-.64,.31-.88,.56-.24,.25-.41,.55-.52,.92l1.32,.19c.07-.21,.21-.38,.41-.54,.2-.15,.48-.23,.82-.23,.33,0,.58,.08,.75,.24,.17,.16,.26,.39,.26,.68v.02c0,.14-.05,.24-.15,.3-.1,.06-.26,.11-.48,.14-.22,.03-.5,.06-.86,.1-.29,.03-.57,.08-.85,.15s-.52,.17-.73,.3c-.22,.13-.39,.31-.51,.53-.13,.22-.19,.5-.19,.84,0,.39,.09,.72,.26,.99,.18,.27,.42,.47,.72,.61,.3,.14,.65,.21,1.03,.21,.31,0,.59-.04,.82-.13,.23-.09,.43-.2,.58-.35Zm-1.76-.76c-.19-.13-.29-.33-.29-.59,0-.18,.05-.33,.14-.45,.1-.12,.23-.21,.39-.27s.36-.11,.57-.14c.09-.01,.2-.03,.33-.05,.13-.02,.26-.04,.39-.06,.13-.02,.25-.05,.35-.08,.11-.03,.18-.07,.22-.1v.71c0,.22-.06,.43-.17,.61s-.27,.34-.48,.45c-.21,.11-.45,.17-.74,.17s-.54-.07-.73-.2Z"/><path d="M229.29,8.67v-1.3c-.07-.01-.15-.02-.24-.03-.1,0-.19,0-.26,0-.34,0-.65,.09-.92,.28-.27,.19-.46,.46-.56,.8h-.06v-1h-1.37v6h1.41v-3.53c0-.26,.06-.48,.18-.68,.12-.2,.28-.35,.48-.46,.2-.11,.44-.17,.69-.17,.12,0,.24,0,.37,.03s.22,.04,.28,.06Z"/><path d="M235.41,13.42V5.41h-1.42v2.99h-.06c-.07-.15-.18-.3-.31-.47-.13-.17-.31-.31-.54-.43-.23-.12-.52-.18-.87-.18-.46,0-.88,.12-1.25,.35-.38,.24-.67,.58-.89,1.04-.22,.46-.33,1.02-.33,1.69s.11,1.22,.32,1.68c.22,.46,.51,.81,.88,1.06,.37,.24,.79,.36,1.27,.36,.34,0,.63-.06,.86-.17,.23-.11,.41-.25,.55-.42,.14-.16,.24-.32,.32-.46h.09v.95h1.39Zm-1.56-1.98c-.11,.29-.27,.52-.48,.68-.21,.16-.47,.24-.77,.24s-.57-.08-.78-.25c-.21-.17-.37-.4-.48-.69-.11-.29-.16-.63-.16-1s.05-.7,.16-.99,.27-.52,.48-.68c.21-.16,.47-.25,.79-.25s.56,.08,.77,.24c.21,.16,.37,.38,.48,.67,.11,.29,.16,.62,.16,1.01s-.05,.73-.16,1.02Z"/><path d="M240.11,9.99l-1.02-.22c-.3-.07-.52-.16-.65-.27-.13-.11-.2-.25-.19-.43,0-.2,.1-.37,.3-.5s.45-.19,.74-.19c.22,0,.4,.04,.56,.11,.15,.07,.27,.16,.36,.28,.09,.11,.15,.24,.19,.37l1.29-.14c-.1-.51-.35-.92-.75-1.22-.41-.3-.96-.45-1.66-.45-.48,0-.9,.07-1.27,.22s-.65,.36-.86,.63-.31,.59-.3,.96c0,.44,.13,.8,.41,1.08,.28,.29,.7,.49,1.28,.61l1.02,.21c.28,.06,.48,.15,.61,.26,.13,.11,.2,.25,.2,.43,0,.2-.1,.37-.31,.51-.2,.14-.47,.21-.81,.21s-.59-.07-.79-.21c-.2-.14-.34-.34-.4-.61l-1.38,.13c.09,.55,.35,.98,.8,1.29s1.04,.46,1.77,.46c.5,0,.94-.08,1.33-.24,.39-.16,.69-.39,.9-.67s.33-.62,.33-1c0-.43-.14-.78-.42-1.04-.28-.27-.7-.46-1.27-.58Z"/><path d="M244.09,14.69c.1-.29,.2-.6,.29-.94,.09-.34,.16-.67,.19-1l.05-.43h-1.25l-.03,.44c-.02,.35-.06,.7-.12,1.04-.06,.34-.12,.65-.19,.92-.06,.27-.11,.49-.15,.65h.95c.06-.16,.14-.39,.25-.68Z"/><path d="M254.85,12.15c.27-.44,.4-.94,.4-1.51V5.41h-1.45v5.11c0,.33-.07,.63-.22,.89s-.35,.46-.62,.61c-.27,.15-.59,.22-.96,.22s-.69-.07-.95-.22c-.27-.15-.48-.35-.62-.61s-.22-.56-.22-.89V5.41h-1.45v5.23c0,.57,.13,1.08,.4,1.51,.27,.44,.65,.77,1.13,1.02,.49,.24,1.06,.37,1.71,.37s1.22-.12,1.71-.37c.49-.24,.87-.58,1.14-1.02Z"/><path d="M262.33,9.43c.22-.4,.32-.85,.32-1.37s-.11-.96-.32-1.36c-.21-.4-.53-.71-.95-.94s-.93-.34-1.55-.34h-3V13.42h1.45v-2.7h1.53c.62,0,1.14-.11,1.56-.34,.42-.23,.74-.54,.96-.94Zm-1.32-.61c-.11,.22-.28,.39-.51,.52-.23,.13-.52,.19-.88,.19h-1.34v-2.9h1.33c.36,0,.66,.06,.89,.18,.23,.12,.4,.29,.51,.51,.11,.22,.17,.47,.17,.75s-.06,.54-.17,.75Z"/><rect x="263.91" y="5.41" width="1.45" height="8.01"/><path d="M268,14.69c.1-.29,.2-.6,.29-.94,.09-.34,.16-.67,.19-1l.05-.43h-1.25l-.03,.44c-.02,.35-.06,.7-.12,1.04-.06,.34-.12,.65-.19,.92-.06,.27-.11,.49-.15,.65h.95c.06-.16,.14-.39,.25-.68Z"/><polygon points="150.29 24.51 150.22 24.51 148.68 18.62 147.26 18.62 145.72 24.5 145.64 24.5 144.2 18.62 142.64 18.62 144.9 26.62 146.33 26.62 147.94 21.01 148 21.01 149.6 26.62 151.04 26.62 153.29 18.62 151.73 18.62 150.29 24.51"/><path d="M157.73,20.98c-.24-.15-.5-.27-.79-.33-.29-.07-.57-.1-.86-.1-.42,0-.8,.06-1.15,.19-.35,.12-.64,.31-.88,.56-.24,.25-.41,.55-.52,.92l1.32,.19c.07-.21,.21-.38,.41-.54,.2-.15,.48-.23,.82-.23,.33,0,.58,.08,.75,.24,.17,.16,.26,.39,.26,.68v.02c0,.14-.05,.24-.15,.3-.1,.06-.26,.11-.48,.14-.22,.03-.5,.06-.86,.1-.29,.03-.57,.08-.85,.15s-.52,.17-.73,.3c-.22,.13-.39,.31-.51,.53-.13,.22-.19,.5-.19,.84,0,.39,.09,.72,.26,.99,.18,.27,.42,.47,.72,.61,.3,.14,.65,.21,1.03,.21,.31,0,.59-.04,.82-.13,.23-.09,.43-.2,.58-.35,.16-.14,.28-.3,.36-.47h.05v.82h1.36v-4.02c0-.4-.07-.73-.22-1s-.34-.48-.57-.63Zm-.62,3.49c0,.22-.06,.43-.17,.61s-.27,.34-.48,.45c-.21,.11-.45,.17-.74,.17s-.54-.07-.73-.2-.29-.33-.29-.59c0-.18,.05-.33,.14-.45,.1-.12,.23-.21,.39-.27s.36-.11,.57-.14c.09-.01,.2-.03,.33-.05,.13-.02,.26-.04,.39-.06,.13-.02,.25-.05,.35-.08,.11-.03,.18-.07,.22-.1v.71Z"/><rect x="159.94" y="18.62" width="1.41" height="8.01"/><rect x="162.81" y="18.62" width="1.41" height="8.01"/><path d="M170.19,21.27c-.25-.25-.55-.43-.88-.55-.33-.12-.68-.18-1.05-.18-.57,0-1.07,.13-1.5,.39-.42,.26-.76,.63-.99,1.09-.24,.47-.35,1.01-.35,1.63s.12,1.17,.35,1.64c.23,.46,.57,.82,1.01,1.07s.96,.38,1.56,.38c.47,0,.88-.07,1.24-.21,.36-.14,.66-.34,.89-.6s.39-.56,.48-.91l-1.32-.15c-.06,.17-.16,.31-.28,.43-.12,.11-.27,.2-.43,.26-.17,.06-.35,.09-.56,.09-.31,0-.58-.07-.81-.2-.23-.13-.41-.32-.54-.57-.12-.24-.19-.53-.19-.86h4.18v-.43c0-.53-.07-.98-.22-1.36-.15-.38-.35-.7-.6-.94Zm-3.36,1.79c.01-.23,.07-.45,.18-.65,.12-.23,.29-.41,.51-.55,.22-.14,.47-.21,.76-.21,.27,0,.51,.06,.71,.18s.36,.29,.48,.5c.11,.21,.17,.45,.18,.73h-2.82Z"/><path d="M174.9,25.49c-.07,.01-.16,.02-.24,.02-.12,0-.22-.02-.32-.05-.1-.04-.17-.1-.23-.21-.06-.1-.09-.25-.09-.44v-3.1h1.18v-1.09h-1.18v-1.44h-1.42v1.44h-.85v1.09h.85v3.34c0,.38,.08,.69,.24,.94,.17,.25,.39,.43,.67,.55,.28,.12,.6,.17,.96,.16,.2,0,.37-.02,.51-.05,.14-.03,.25-.06,.32-.09l-.24-1.11s-.1,.02-.17,.04Z"/><path d="M176.77,25.97c-.02,.35-.06,.7-.12,1.04-.06,.34-.12,.65-.19,.92-.06,.27-.11,.49-.15,.65h.95c.06-.16,.14-.39,.25-.68,.1-.29,.2-.6,.29-.94,.09-.34,.16-.67,.19-1l.05-.43h-1.25l-.03,.44Z"/><path d="M186.73,18.96c-.42-.23-.93-.34-1.55-.34h-3v8.01h1.45v-2.7h1.53c.62,0,1.14-.11,1.56-.34,.42-.23,.74-.54,.96-.94,.22-.4,.32-.85,.32-1.37s-.11-.96-.32-1.36-.53-.71-.95-.94Zm-.37,3.06c-.11,.22-.28,.39-.51,.52-.23,.13-.52,.19-.88,.19h-1.34v-2.9h1.33c.36,0,.66,.06,.89,.18,.23,.12,.4,.29,.51,.51,.11,.22,.17,.47,.17,.75s-.06,.54-.17,.75Z"/><path d="M193.26,20.93c-.43-.26-.94-.39-1.52-.39s-1.09,.13-1.52,.39-.76,.62-1,1.09c-.24,.47-.35,1.01-.35,1.63s.12,1.16,.35,1.63c.24,.46,.57,.82,1,1.08,.43,.26,.94,.39,1.52,.39s1.09-.13,1.52-.39c.43-.26,.76-.62,1-1.08,.24-.46,.35-1.01,.35-1.63s-.12-1.16-.35-1.63c-.24-.47-.57-.83-1-1.09Zm-.24,3.71c-.11,.3-.27,.53-.48,.71s-.48,.26-.8,.26-.6-.09-.81-.26c-.22-.18-.38-.41-.48-.71-.11-.3-.16-.63-.16-.99s.05-.7,.16-1,.27-.54,.48-.71c.21-.18,.49-.27,.81-.27s.58,.09,.8,.27c.21,.18,.37,.41,.48,.71s.16,.63,.16,1-.05,.7-.16,.99Z"/><path d="M198.99,23.2l-1.02-.22c-.31-.07-.52-.16-.65-.27-.13-.11-.2-.25-.19-.43,0-.2,.1-.37,.3-.5,.2-.13,.45-.19,.74-.19,.22,0,.4,.04,.56,.11s.27,.16,.36,.28c.09,.11,.15,.24,.19,.37l1.29-.14c-.1-.51-.35-.92-.75-1.22-.41-.3-.96-.45-1.66-.45-.48,0-.9,.07-1.27,.22-.37,.15-.65,.36-.86,.63-.2,.27-.31,.59-.3,.96,0,.44,.13,.8,.41,1.08s.7,.49,1.28,.61l1.02,.21c.28,.06,.48,.15,.61,.26s.2,.25,.2,.43c0,.2-.1,.37-.31,.51-.2,.14-.48,.21-.81,.21s-.59-.07-.79-.21c-.2-.14-.34-.34-.4-.61l-1.38,.13c.09,.55,.35,.98,.8,1.29s1.04,.46,1.77,.46c.5,0,.94-.08,1.33-.24,.39-.16,.69-.39,.9-.67s.33-.62,.33-1c0-.43-.14-.78-.42-1.04-.28-.27-.7-.46-1.27-.58Z"/><path d="M204.55,25.49c-.07,.01-.16,.02-.24,.02-.12,0-.22-.02-.32-.05s-.17-.1-.23-.21c-.06-.1-.09-.25-.09-.44v-3.1h1.18v-1.09h-1.18v-1.44h-1.41v1.44h-.85v1.09h.85v3.34c0,.38,.08,.69,.24,.94,.17,.25,.39,.43,.67,.55,.28,.12,.6,.17,.96,.16,.2,0,.37-.02,.51-.05,.14-.03,.25-.06,.32-.09l-.24-1.11s-.1,.02-.17,.04Z"/><path d="M210.48,20.9c-.37-.24-.79-.35-1.26-.35-.35,0-.64,.06-.87,.18-.23,.12-.41,.26-.54,.43-.13,.17-.24,.32-.31,.47h-.08v-.99h-1.39v8.26h1.42v-3.2h.06c.08,.15,.18,.3,.32,.46,.14,.16,.32,.3,.55,.42,.23,.11,.51,.17,.86,.17,.47,0,.89-.12,1.27-.36,.37-.24,.67-.59,.88-1.06s.32-1.02,.32-1.68-.11-1.23-.33-1.69c-.22-.46-.52-.81-.89-1.04Zm-.38,3.73c-.11,.29-.27,.52-.48,.69-.21,.17-.47,.25-.79,.25s-.55-.08-.76-.24c-.21-.16-.37-.39-.48-.68-.11-.29-.17-.63-.17-1.02s.05-.73,.16-1.01c.11-.29,.27-.51,.48-.67,.21-.16,.47-.24,.77-.24s.58,.08,.79,.25,.37,.39,.48,.68,.16,.62,.16,.99-.05,.71-.16,1Z"/><path d="M217.02,20.98c-.24-.15-.5-.27-.79-.33-.29-.07-.57-.1-.86-.1-.42,0-.8,.06-1.15,.19-.35,.12-.64,.31-.88,.56-.24,.25-.41,.55-.52,.92l1.32,.19c.07-.21,.21-.38,.41-.54,.2-.15,.48-.23,.82-.23,.33,0,.58,.08,.75,.24,.17,.16,.26,.39,.26,.68v.02c0,.14-.05,.24-.15,.3-.1,.06-.26,.11-.48,.14-.22,.03-.5,.06-.86,.1-.29,.03-.57,.08-.85,.15s-.52,.17-.73,.3c-.22,.13-.39,.31-.51,.53-.13,.22-.19,.5-.19,.84,0,.39,.09,.72,.26,.99,.18,.27,.42,.47,.72,.61,.3,.14,.65,.21,1.03,.21,.31,0,.59-.04,.82-.13,.23-.09,.43-.2,.58-.35,.16-.14,.28-.3,.36-.47h.05v.82h1.36v-4.02c0-.4-.07-.73-.22-1s-.34-.48-.57-.63Zm-.62,3.49c0,.22-.06,.43-.17,.61s-.27,.34-.48,.45c-.21,.11-.45,.17-.74,.17s-.54-.07-.73-.2-.29-.33-.29-.59c0-.18,.05-.33,.14-.45,.1-.12,.23-.21,.39-.27s.36-.11,.57-.14c.09-.01,.2-.03,.33-.05,.13-.02,.26-.04,.39-.06,.13-.02,.25-.05,.35-.08,.11-.03,.18-.07,.22-.1v.71Z"/><rect x="219.23" y="20.62" width="1.41" height="6"/><path d="M219.94,18.23c-.22,0-.42,.07-.58,.22-.16,.15-.24,.33-.24,.55s.08,.39,.24,.54c.16,.15,.35,.22,.58,.22s.42-.07,.58-.22c.16-.15,.24-.33,.24-.54s-.08-.4-.24-.55c-.16-.15-.35-.22-.58-.22Z"/><path d="M226.11,21.61h-.06c-.07-.15-.18-.3-.31-.47-.13-.17-.31-.31-.54-.43-.23-.12-.52-.18-.87-.18-.46,0-.88,.12-1.25,.35-.38,.24-.67,.58-.89,1.04-.22,.46-.33,1.02-.33,1.69s.11,1.22,.32,1.68c.22,.46,.51,.81,.88,1.06,.37,.24,.79,.36,1.27,.36,.34,0,.63-.06,.86-.17,.23-.11,.41-.25,.55-.42,.14-.16,.24-.32,.32-.46h.09v.95h1.39v-8.01h-1.42v2.99Zm-.14,3.03c-.11,.29-.27,.52-.48,.68-.21,.16-.47,.24-.77,.24s-.57-.08-.78-.25c-.21-.17-.37-.4-.48-.69-.11-.29-.16-.63-.16-1s.05-.7,.16-.99,.27-.52,.48-.68c.21-.16,.47-.25,.79-.25s.56,.08,.77,.24c.21,.16,.37,.38,.48,.67,.11,.29,.16,.62,.16,1.01s-.05,.73-.16,1.02Z"/><path d="M229.42,25.97c-.02,.35-.06,.7-.12,1.04-.06,.34-.12,.65-.19,.92-.06,.27-.11,.49-.15,.65h.95c.06-.16,.14-.39,.25-.68,.1-.29,.2-.6,.29-.94,.09-.34,.16-.67,.19-1l.05-.43h-1.25l-.03,.44Z"/><polygon points="239.97 24.08 239.9 24.08 236.13 18.62 234.83 18.62 234.83 26.62 236.28 26.62 236.28 21.17 236.35 21.17 240.12 26.62 241.41 26.62 241.41 18.62 239.97 18.62 239.97 24.08"/><path d="M247.43,21.27c-.25-.25-.55-.43-.88-.55-.33-.12-.68-.18-1.05-.18-.57,0-1.07,.13-1.5,.39-.42,.26-.76,.63-.99,1.09-.24,.47-.35,1.01-.35,1.63s.12,1.17,.35,1.64c.23,.46,.57,.82,1.01,1.07s.96,.38,1.56,.38c.47,0,.88-.07,1.24-.21,.36-.14,.66-.34,.89-.6s.39-.56,.48-.91l-1.32-.15c-.06,.17-.16,.31-.28,.43-.12,.11-.27,.2-.43,.26-.17,.06-.35,.09-.56,.09-.31,0-.58-.07-.81-.2-.23-.13-.41-.32-.54-.57-.12-.24-.19-.53-.19-.86h4.18v-.43c0-.53-.07-.98-.22-1.36-.15-.38-.35-.7-.6-.94Zm-3.36,1.79c.01-.23,.07-.45,.18-.65,.12-.23,.29-.41,.51-.55,.22-.14,.47-.21,.76-.21,.27,0,.51,.06,.71,.18s.36,.29,.48,.5c.11,.21,.17,.45,.18,.73h-2.82Z"/><path d="M252.15,25.49c-.07,.01-.16,.02-.24,.02-.12,0-.22-.02-.32-.05-.1-.04-.17-.1-.23-.21-.06-.1-.09-.25-.09-.44v-3.1h1.18v-1.09h-1.18v-1.44h-1.42v1.44h-.85v1.09h.85v3.34c0,.38,.08,.69,.24,.94,.17,.25,.39,.43,.67,.55,.28,.12,.6,.17,.96,.16,.2,0,.37-.02,.51-.05,.14-.03,.25-.06,.32-.09l-.24-1.11s-.1,.02-.17,.04Z"/><path d="M258.26,20.9c-.37-.24-.79-.35-1.26-.35-.35,0-.64,.06-.87,.18-.23,.12-.41,.26-.54,.43-.13,.17-.24,.32-.31,.47h-.06v-2.99h-1.41v8.01h1.39v-.95h.08c.08,.15,.18,.3,.32,.46,.14,.16,.32,.3,.55,.42,.23,.11,.51,.17,.86,.17,.47,0,.89-.12,1.27-.36,.37-.24,.67-.59,.88-1.06s.32-1.02,.32-1.68-.11-1.23-.33-1.69c-.22-.46-.52-.81-.89-1.04Zm-.38,3.73c-.11,.29-.27,.52-.48,.69-.21,.17-.47,.25-.79,.25s-.55-.08-.76-.24c-.21-.16-.37-.39-.48-.68-.11-.29-.17-.63-.17-1.02s.05-.73,.16-1.01c.11-.29,.27-.51,.48-.67,.21-.16,.47-.24,.77-.24s.58,.08,.79,.25c.21,.16,.37,.39,.48,.68s.16,.62,.16,.99-.05,.71-.16,1Z"/><path d="M264.8,20.98c-.24-.15-.5-.27-.79-.33-.29-.07-.57-.1-.86-.1-.42,0-.8,.06-1.15,.19-.35,.12-.64,.31-.88,.56-.24,.25-.41,.55-.52,.92l1.32,.19c.07-.21,.21-.38,.41-.54,.2-.15,.48-.23,.82-.23,.33,0,.58,.08,.75,.24,.17,.16,.26,.39,.26,.68v.02c0,.14-.05,.24-.15,.3-.1,.06-.26,.11-.48,.14-.22,.03-.5,.06-.86,.1-.29,.03-.57,.08-.85,.15s-.52,.17-.73,.3c-.22,.13-.39,.31-.51,.53-.13,.22-.19,.5-.19,.84,0,.39,.09,.72,.26,.99,.18,.27,.42,.47,.72,.61,.3,.14,.65,.21,1.03,.21,.31,0,.59-.04,.82-.13,.23-.09,.43-.2,.58-.35,.16-.14,.28-.3,.36-.47h.05v.82h1.36v-4.02c0-.4-.07-.73-.22-1s-.34-.48-.57-.63Zm-.62,3.49c0,.22-.06,.43-.17,.61s-.27,.34-.48,.45c-.21,.11-.45,.17-.74,.17s-.54-.07-.73-.2-.29-.33-.29-.59c0-.18,.05-.33,.14-.45,.1-.12,.23-.21,.39-.27s.36-.11,.57-.14c.09-.01,.2-.03,.33-.05,.13-.02,.26-.04,.39-.06,.13-.02,.25-.05,.35-.08,.11-.03,.18-.07,.22-.1v.71Z"/><path d="M271.31,20.81c-.31-.18-.67-.27-1.08-.27-.45,0-.82,.1-1.13,.3s-.52,.47-.66,.8h-.07v-1.02h-1.35v6h1.41v-3.52c0-.29,.05-.54,.16-.74,.11-.2,.26-.36,.45-.47,.19-.11,.41-.16,.66-.16,.36,0,.65,.11,.86,.34s.31,.54,.31,.94v3.6h1.41v-3.82c0-.48-.08-.89-.25-1.22-.17-.34-.41-.59-.72-.77Z"/><polygon points="279.05 20.62 277.4 20.62 275.24 23.03 275.14 23.03 275.14 18.62 273.73 18.62 273.73 26.62 275.14 26.62 275.14 24.61 275.66 24.05 277.5 26.62 279.19 26.62 276.72 23.21 279.05 20.62"/><path d="M280.7,18.23c-.22,0-.42,.07-.58,.22-.16,.15-.24,.33-.24,.55s.08,.39,.24,.54c.16,.15,.35,.22,.58,.22s.42-.07,.58-.22c.16-.15,.24-.33,.24-.54s-.08-.4-.24-.55c-.16-.15-.35-.22-.58-.22Z"/><rect x="279.99" y="20.62" width="1.41" height="6"/><path d="M287.16,20.81c-.31-.18-.67-.27-1.08-.27-.45,0-.82,.1-1.13,.3s-.52,.47-.66,.8h-.07v-1.02h-1.35v6h1.42v-3.52c0-.29,.05-.54,.16-.74s.26-.36,.45-.47c.19-.11,.41-.16,.66-.16,.36,0,.65,.11,.86,.34s.31,.54,.31,.94v3.6h1.42v-3.82c0-.48-.08-.89-.25-1.22s-.41-.59-.72-.77Z"/><path d="M293.6,20.62v.99h-.08c-.07-.15-.17-.3-.31-.47-.14-.17-.32-.31-.55-.43-.23-.12-.52-.18-.87-.18-.46,0-.88,.12-1.25,.35-.38,.24-.67,.58-.89,1.04s-.33,1.01-.33,1.67,.11,1.2,.33,1.63c.22,.43,.52,.76,.89,.98,.37,.22,.79,.33,1.25,.33,.34,0,.63-.05,.86-.16,.23-.1,.41-.23,.55-.39,.14-.15,.25-.3,.32-.45h.07v1.14c0,.43-.13,.74-.39,.93-.26,.19-.6,.29-1,.29-.28,0-.52-.04-.71-.12-.19-.08-.33-.17-.44-.29-.11-.11-.19-.22-.25-.33l-1.27,.31c.09,.27,.24,.52,.46,.75,.22,.23,.51,.41,.88,.54,.36,.14,.8,.2,1.31,.2,.54,0,1.02-.08,1.45-.25,.42-.17,.76-.42,1-.75,.24-.33,.37-.75,.37-1.26v-6.1h-1.4Zm-.16,3.96c-.11,.27-.27,.48-.48,.63-.21,.15-.47,.22-.77,.22s-.57-.08-.78-.23c-.21-.15-.37-.37-.48-.64-.11-.27-.16-.6-.16-.96s.05-.69,.16-.97c.11-.29,.27-.51,.48-.67s.47-.25,.79-.25,.56,.08,.77,.24c.21,.16,.37,.38,.48,.66,.11,.28,.16,.61,.16,.99s-.05,.71-.16,.98Z"/></g><path class="e" d="M135.71,26.81c-.16,0-.29-.13-.29-.29V5.32c0-.16,.13-.29,.29-.29s.29,.13,.29,.29V26.52c0,.16-.13,.29-.29,.29Z"/></svg>